<mxfile host="app.diagrams.net" modified="2022-02-23T06:30:18.793Z" agent="5.0 (Windows NT 10.0; Win64; x64) AppleWebKit/537.36 (KHTML, like Gecko) Chrome/98.0.4758.102 Safari/537.36" etag="gkSMMj90hYBglbH5gXKD" version="16.6.2" type="github">
  <diagram id="6SjnHrmw7U_hnrUAdcLT" name="Page-1">
    <mxGraphModel dx="2784" dy="1234" grid="0" gridSize="10" guides="1" tooltips="1" connect="1" arrows="1" fold="1" page="0" pageScale="1" pageWidth="827" pageHeight="1169" math="0" shadow="0">
      <root>
        <mxCell id="0" />
        <mxCell id="1" parent="0" />
        <mxCell id="GQpwaOu7h-6CQK4Oy5rI-45" style="edgeStyle=orthogonalEdgeStyle;rounded=0;orthogonalLoop=1;jettySize=auto;html=1;endArrow=open;endFill=0;endSize=10;" parent="1" source="yRJhLz_1n7eGuecbgBKT-67" target="NSK0_wLwRa2PUr08ak1v-19" edge="1">
          <mxGeometry relative="1" as="geometry">
            <mxPoint x="-38" y="532" as="targetPoint" />
            <Array as="points">
              <mxPoint x="550" y="943" />
              <mxPoint x="-16" y="943" />
            </Array>
            <mxPoint x="561" y="782.998" as="sourcePoint" />
          </mxGeometry>
        </mxCell>
        <mxCell id="GQpwaOu7h-6CQK4Oy5rI-46" value="1&lt;br&gt;conductor&lt;br&gt;" style="edgeLabel;html=1;align=center;verticalAlign=middle;resizable=0;points=[];" parent="GQpwaOu7h-6CQK4Oy5rI-45" vertex="1" connectable="0">
          <mxGeometry x="0.9553" y="-1" relative="1" as="geometry">
            <mxPoint x="34" y="-2" as="offset" />
          </mxGeometry>
        </mxCell>
        <mxCell id="GQpwaOu7h-6CQK4Oy5rI-48" style="edgeStyle=orthogonalEdgeStyle;rounded=0;orthogonalLoop=1;jettySize=auto;html=1;endArrow=open;endFill=0;endSize=10;" parent="1" source="yRJhLz_1n7eGuecbgBKT-67" target="xFhhPgqsHEsZ-JBTRw54-11" edge="1">
          <mxGeometry relative="1" as="geometry">
            <Array as="points">
              <mxPoint x="556" y="640" />
              <mxPoint x="409" y="640" />
            </Array>
            <mxPoint x="411" y="470" as="targetPoint" />
            <mxPoint x="554" y="741" as="sourcePoint" />
          </mxGeometry>
        </mxCell>
        <mxCell id="GQpwaOu7h-6CQK4Oy5rI-53" value="Pasajero&amp;nbsp;&lt;br&gt;1" style="edgeLabel;html=1;align=center;verticalAlign=middle;resizable=0;points=[];" parent="GQpwaOu7h-6CQK4Oy5rI-48" vertex="1" connectable="0">
          <mxGeometry x="0.8404" y="2" relative="1" as="geometry">
            <mxPoint x="2" y="31" as="offset" />
          </mxGeometry>
        </mxCell>
        <mxCell id="8bKeLV1RBKHs6_vVbSdt-36" style="edgeStyle=orthogonalEdgeStyle;rounded=0;orthogonalLoop=1;jettySize=auto;html=1;exitX=0.5;exitY=0;exitDx=0;exitDy=0;endArrow=block;endFill=0;strokeWidth=1;endSize=10;" parent="1" source="xFhhPgqsHEsZ-JBTRw54-11" edge="1" target="yRJhLz_1n7eGuecbgBKT-94">
          <mxGeometry relative="1" as="geometry">
            <Array as="points">
              <mxPoint x="472" y="325" />
              <mxPoint x="303" y="325" />
            </Array>
            <mxPoint x="269" y="279" as="targetPoint" />
          </mxGeometry>
        </mxCell>
        <mxCell id="GQpwaOu7h-6CQK4Oy5rI-39" style="edgeStyle=orthogonalEdgeStyle;rounded=0;orthogonalLoop=1;jettySize=auto;html=1;endArrow=open;endFill=0;endSize=10;" parent="1" source="xFhhPgqsHEsZ-JBTRw54-11" target="yRJhLz_1n7eGuecbgBKT-67" edge="1">
          <mxGeometry relative="1" as="geometry">
            <mxPoint x="592" y="745" as="targetPoint" />
            <Array as="points">
              <mxPoint x="472" y="611" />
              <mxPoint x="587" y="611" />
            </Array>
          </mxGeometry>
        </mxCell>
        <mxCell id="GQpwaOu7h-6CQK4Oy5rI-50" value="historialViajes&lt;br&gt;0..*" style="edgeLabel;html=1;align=center;verticalAlign=middle;resizable=0;points=[];rotation=-90;" parent="GQpwaOu7h-6CQK4Oy5rI-39" vertex="1" connectable="0">
          <mxGeometry x="0.7634" y="3" relative="1" as="geometry">
            <mxPoint x="-6" y="-15" as="offset" />
          </mxGeometry>
        </mxCell>
        <mxCell id="GQpwaOu7h-6CQK4Oy5rI-47" style="edgeStyle=orthogonalEdgeStyle;rounded=0;orthogonalLoop=1;jettySize=auto;html=1;endArrow=open;endFill=0;endSize=10;" parent="1" source="xFhhPgqsHEsZ-JBTRw54-11" target="yRJhLz_1n7eGuecbgBKT-67" edge="1">
          <mxGeometry relative="1" as="geometry">
            <Array as="points">
              <mxPoint x="507" y="589" />
              <mxPoint x="617" y="589" />
            </Array>
            <mxPoint x="617.7020000000002" y="744.6879999999999" as="targetPoint" />
          </mxGeometry>
        </mxCell>
        <mxCell id="GQpwaOu7h-6CQK4Oy5rI-51" value="ViajeEnCurso&amp;nbsp;&lt;br&gt;0...1&lt;br&gt;" style="edgeLabel;html=1;align=center;verticalAlign=middle;resizable=0;points=[];rotation=-90;" parent="GQpwaOu7h-6CQK4Oy5rI-47" vertex="1" connectable="0">
          <mxGeometry x="0.7179" y="1" relative="1" as="geometry">
            <mxPoint x="2" y="-7" as="offset" />
          </mxGeometry>
        </mxCell>
        <mxCell id="GQpwaOu7h-6CQK4Oy5rI-65" value="-" style="edgeStyle=orthogonalEdgeStyle;rounded=0;orthogonalLoop=1;jettySize=auto;html=1;endArrow=open;endFill=0;endSize=10;" parent="1" target="yRJhLz_1n7eGuecbgBKT-5" edge="1" source="xFhhPgqsHEsZ-JBTRw54-11">
          <mxGeometry x="0.0242" y="18" relative="1" as="geometry">
            <mxPoint x="367" y="440" as="sourcePoint" />
            <mxPoint x="156" y="641.0000000000001" as="targetPoint" />
            <Array as="points">
              <mxPoint x="353" y="412" />
              <mxPoint x="353" y="654" />
            </Array>
            <mxPoint x="5" y="-1" as="offset" />
          </mxGeometry>
        </mxCell>
        <mxCell id="GQpwaOu7h-6CQK4Oy5rI-66" value="ubicacion&amp;nbsp;&lt;br&gt;1" style="edgeLabel;html=1;align=center;verticalAlign=middle;resizable=0;points=[];" parent="GQpwaOu7h-6CQK4Oy5rI-65" vertex="1" connectable="0">
          <mxGeometry x="0.8634" y="1" relative="1" as="geometry">
            <mxPoint x="22" y="19" as="offset" />
          </mxGeometry>
        </mxCell>
        <mxCell id="xFhhPgqsHEsZ-JBTRw54-11" value="pasajero" style="swimlane;fontStyle=0;childLayout=stackLayout;horizontal=1;startSize=26;fillColor=none;horizontalStack=0;resizeParent=1;resizeParentMax=0;resizeLast=0;collapsible=1;marginBottom=0;" parent="1" vertex="1">
          <mxGeometry x="367" y="335" width="209" height="103" as="geometry" />
        </mxCell>
        <mxCell id="p-8QRYcvky3vpSZ8gG1q-4" value="+ notasRecibidas : float[]" style="text;html=1;strokeColor=default;fillColor=none;align=center;verticalAlign=middle;whiteSpace=wrap;rounded=0;" parent="xFhhPgqsHEsZ-JBTRw54-11" vertex="1">
          <mxGeometry y="26" width="209" height="17" as="geometry" />
        </mxCell>
        <mxCell id="p-8QRYcvky3vpSZ8gG1q-3" value="&lt;span style=&quot;font-family: &amp;#34;helvetica&amp;#34; ; font-size: 12px ; font-style: normal ; font-weight: 400&quot;&gt;+ getTarjetaCredito() : tarjetaCredito&lt;br&gt;+ getUbicacion() : Posicion&lt;br&gt;+ getHistorialViajes() : viaje[]&lt;br&gt;+ getNotasRecibidas(): float[]&lt;br&gt;&lt;/span&gt;" style="text;html=1;align=center;verticalAlign=middle;resizable=0;points=[];autosize=1;strokeColor=none;fillColor=none;" parent="xFhhPgqsHEsZ-JBTRw54-11" vertex="1">
          <mxGeometry y="43" width="209" height="60" as="geometry" />
        </mxCell>
        <mxCell id="8bKeLV1RBKHs6_vVbSdt-26" style="edgeStyle=orthogonalEdgeStyle;rounded=0;orthogonalLoop=1;jettySize=auto;html=1;endArrow=open;endFill=0;endSize=10;" parent="1" target="xFhhPgqsHEsZ-JBTRw54-11" edge="1" source="yRJhLz_1n7eGuecbgBKT-23">
          <mxGeometry relative="1" as="geometry">
            <mxPoint x="565.28" y="444" as="targetPoint" />
            <Array as="points">
              <mxPoint x="656" y="306" />
              <mxPoint x="656" y="360" />
            </Array>
            <mxPoint x="777.0000000000002" y="328.3280000000002" as="sourcePoint" />
          </mxGeometry>
        </mxCell>
        <mxCell id="8bKeLV1RBKHs6_vVbSdt-35" style="edgeStyle=orthogonalEdgeStyle;rounded=0;orthogonalLoop=1;jettySize=auto;html=1;exitX=0.5;exitY=0;exitDx=0;exitDy=0;entryX=0.529;entryY=1.038;entryDx=0;entryDy=0;entryPerimeter=0;endArrow=block;endFill=0;strokeWidth=1;endSize=10;" parent="1" source="NSK0_wLwRa2PUr08ak1v-19" target="yRJhLz_1n7eGuecbgBKT-94" edge="1">
          <mxGeometry relative="1" as="geometry">
            <Array as="points">
              <mxPoint x="-48" y="320" />
              <mxPoint x="181" y="320" />
            </Array>
            <mxPoint x="178.76700000000005" y="322.98800000000006" as="targetPoint" />
          </mxGeometry>
        </mxCell>
        <mxCell id="GQpwaOu7h-6CQK4Oy5rI-42" style="edgeStyle=orthogonalEdgeStyle;rounded=0;orthogonalLoop=1;jettySize=auto;html=1;endArrow=open;endFill=0;endSize=10;" parent="1" source="NSK0_wLwRa2PUr08ak1v-19" target="yRJhLz_1n7eGuecbgBKT-67" edge="1">
          <mxGeometry relative="1" as="geometry">
            <mxPoint x="27" y="441.38" as="sourcePoint" />
            <mxPoint x="491" y="776" as="targetPoint" />
            <Array as="points">
              <mxPoint x="-50" y="996" />
              <mxPoint x="570" y="996" />
            </Array>
          </mxGeometry>
        </mxCell>
        <mxCell id="GQpwaOu7h-6CQK4Oy5rI-43" value="ViajeEnCurso&lt;br&gt;0...1" style="edgeLabel;html=1;align=center;verticalAlign=middle;resizable=0;points=[];" parent="GQpwaOu7h-6CQK4Oy5rI-42" vertex="1" connectable="0">
          <mxGeometry x="0.799" y="3" relative="1" as="geometry">
            <mxPoint x="-45" y="25" as="offset" />
          </mxGeometry>
        </mxCell>
        <mxCell id="GQpwaOu7h-6CQK4Oy5rI-55" style="edgeStyle=orthogonalEdgeStyle;rounded=0;orthogonalLoop=1;jettySize=auto;html=1;endArrow=open;endFill=0;endSize=10;" parent="1" source="p-8QRYcvky3vpSZ8gG1q-1" target="8bKeLV1RBKHs6_vVbSdt-11" edge="1">
          <mxGeometry relative="1" as="geometry">
            <Array as="points">
              <mxPoint x="-82" y="607" />
              <mxPoint x="-321" y="607" />
              <mxPoint x="-321" y="753" />
            </Array>
          </mxGeometry>
        </mxCell>
        <mxCell id="GQpwaOu7h-6CQK4Oy5rI-56" value="automoviles&lt;br&gt;1..*" style="edgeLabel;html=1;align=center;verticalAlign=middle;resizable=0;points=[];" parent="GQpwaOu7h-6CQK4Oy5rI-55" vertex="1" connectable="0">
          <mxGeometry x="0.8046" y="2" relative="1" as="geometry">
            <mxPoint x="32" y="11" as="offset" />
          </mxGeometry>
        </mxCell>
        <mxCell id="GQpwaOu7h-6CQK4Oy5rI-61" style="edgeStyle=orthogonalEdgeStyle;rounded=0;orthogonalLoop=1;jettySize=auto;html=1;endArrow=open;endFill=0;endSize=10;" parent="1" source="NSK0_wLwRa2PUr08ak1v-19" target="yRJhLz_1n7eGuecbgBKT-5" edge="1">
          <mxGeometry relative="1" as="geometry">
            <Array as="points">
              <mxPoint x="101" y="524" />
              <mxPoint x="101" y="650" />
            </Array>
            <mxPoint x="122" y="599" as="targetPoint" />
          </mxGeometry>
        </mxCell>
        <mxCell id="GQpwaOu7h-6CQK4Oy5rI-62" value="ubicacion&amp;nbsp;&lt;br&gt;1" style="edgeLabel;html=1;align=center;verticalAlign=middle;resizable=0;points=[];" parent="GQpwaOu7h-6CQK4Oy5rI-61" vertex="1" connectable="0">
          <mxGeometry x="0.8496" relative="1" as="geometry">
            <mxPoint x="-12" y="-17" as="offset" />
          </mxGeometry>
        </mxCell>
        <mxCell id="NSK0_wLwRa2PUr08ak1v-19" value="Conductor" style="swimlane;fontStyle=0;childLayout=stackLayout;horizontal=1;startSize=26;fillColor=none;horizontalStack=0;resizeParent=1;resizeParentMax=0;resizeLast=0;collapsible=1;marginBottom=0;" parent="1" vertex="1">
          <mxGeometry x="-152" y="331" width="200" height="210" as="geometry" />
        </mxCell>
        <mxCell id="k5XxRQNL9i_wTMCsPTD--12" value="- deuda: float&#xa;- bonificacion: float&#xa;- notasRecibidas : float[]&#xa;- kmRecorridosSinViaje : float" style="text;strokeColor=none;fillColor=none;align=left;verticalAlign=top;spacingLeft=4;spacingRight=4;overflow=hidden;rotatable=0;points=[[0,0.5],[1,0.5]];portConstraint=eastwest;" parent="NSK0_wLwRa2PUr08ak1v-19" vertex="1">
          <mxGeometry y="26" width="200" height="70" as="geometry" />
        </mxCell>
        <mxCell id="p-8QRYcvky3vpSZ8gG1q-1" value="getEmpresa() : Empresa&lt;br&gt;getAutomoviles(): automovil[]&lt;br&gt;getUbicacion(): Posicion&lt;br&gt;getDeuda() : float&lt;br&gt;getBonificacion(): float&lt;br&gt;getNotasRecibidas() : float[]" style="text;html=1;strokeColor=default;fillColor=none;align=left;verticalAlign=middle;whiteSpace=wrap;rounded=0;" parent="NSK0_wLwRa2PUr08ak1v-19" vertex="1">
          <mxGeometry y="96" width="200" height="114" as="geometry" />
        </mxCell>
        <mxCell id="GQpwaOu7h-6CQK4Oy5rI-63" style="edgeStyle=orthogonalEdgeStyle;rounded=0;orthogonalLoop=1;jettySize=auto;html=1;endArrow=open;endFill=0;endSize=10;" parent="1" source="_v_6MPIKIYaDayUwwzO5-1" target="yRJhLz_1n7eGuecbgBKT-5" edge="1">
          <mxGeometry relative="1" as="geometry">
            <Array as="points">
              <mxPoint x="121" y="693" />
            </Array>
            <mxPoint x="136" y="760" as="targetPoint" />
          </mxGeometry>
        </mxCell>
        <mxCell id="GQpwaOu7h-6CQK4Oy5rI-64" value="1&lt;br&gt;ubicacion" style="edgeLabel;html=1;align=center;verticalAlign=middle;resizable=0;points=[];" parent="GQpwaOu7h-6CQK4Oy5rI-63" vertex="1" connectable="0">
          <mxGeometry x="0.8105" y="2" relative="1" as="geometry">
            <mxPoint x="3" y="29" as="offset" />
          </mxGeometry>
        </mxCell>
        <mxCell id="_v_6MPIKIYaDayUwwzO5-1" value="lugar" style="swimlane;fontStyle=0;childLayout=stackLayout;horizontal=1;startSize=26;fillColor=none;horizontalStack=0;resizeParent=1;resizeParentMax=0;resizeLast=0;collapsible=1;marginBottom=0;" parent="1" vertex="1">
          <mxGeometry x="58" y="770" width="140" height="82" as="geometry" />
        </mxCell>
        <mxCell id="_v_6MPIKIYaDayUwwzO5-4" value="+ nombre: String" style="text;strokeColor=none;fillColor=none;align=left;verticalAlign=top;spacingLeft=4;spacingRight=4;overflow=hidden;rotatable=0;points=[[0,0.5],[1,0.5]];portConstraint=eastwest;" parent="_v_6MPIKIYaDayUwwzO5-1" vertex="1">
          <mxGeometry y="26" width="140" height="26" as="geometry" />
        </mxCell>
        <mxCell id="p-8QRYcvky3vpSZ8gG1q-8" value="+ getNombre() : String" style="text;html=1;strokeColor=default;fillColor=none;align=center;verticalAlign=middle;whiteSpace=wrap;rounded=0;" parent="_v_6MPIKIYaDayUwwzO5-1" vertex="1">
          <mxGeometry y="52" width="140" height="30" as="geometry" />
        </mxCell>
        <mxCell id="mi6PXNNQGqWqxz6OcjHv-20" style="edgeStyle=orthogonalEdgeStyle;rounded=0;orthogonalLoop=1;jettySize=auto;html=1;exitX=0.5;exitY=0;exitDx=0;exitDy=0;endArrow=open;endFill=0;endSize=10;" parent="1" source="_v_6MPIKIYaDayUwwzO5-7" target="yRJhLz_1n7eGuecbgBKT-66" edge="1">
          <mxGeometry relative="1" as="geometry">
            <Array as="points">
              <mxPoint x="273" y="1142" />
              <mxPoint x="273" y="1067" />
              <mxPoint x="646" y="1067" />
            </Array>
            <mxPoint x="649.56" y="891.52" as="targetPoint" />
          </mxGeometry>
        </mxCell>
        <mxCell id="_v_6MPIKIYaDayUwwzO5-7" value="&lt;&lt; abstract &gt;&gt; pagoViaje" style="swimlane;fontStyle=0;childLayout=stackLayout;horizontal=1;startSize=26;fillColor=none;horizontalStack=0;resizeParent=1;resizeParentMax=0;resizeLast=0;collapsible=1;marginBottom=0;" parent="1" vertex="1">
          <mxGeometry x="249" y="1142" width="140" height="58" as="geometry" />
        </mxCell>
        <mxCell id="mi6PXNNQGqWqxz6OcjHv-22" value="&amp;nbsp;+ pagado : boolean&lt;br&gt;&amp;nbsp;+ comision : float" style="text;html=1;align=left;verticalAlign=middle;resizable=0;points=[];autosize=1;strokeColor=none;fillColor=none;" parent="_v_6MPIKIYaDayUwwzO5-7" vertex="1">
          <mxGeometry y="26" width="140" height="32" as="geometry" />
        </mxCell>
        <mxCell id="8bKeLV1RBKHs6_vVbSdt-38" style="edgeStyle=orthogonalEdgeStyle;rounded=0;orthogonalLoop=1;jettySize=auto;html=1;endArrow=open;endFill=0;strokeWidth=1;endSize=10;" parent="1" source="8bKeLV1RBKHs6_vVbSdt-11" target="NSK0_wLwRa2PUr08ak1v-19" edge="1">
          <mxGeometry relative="1" as="geometry">
            <Array as="points">
              <mxPoint x="-406" y="595" />
              <mxPoint x="-101" y="595" />
            </Array>
          </mxGeometry>
        </mxCell>
        <mxCell id="GQpwaOu7h-6CQK4Oy5rI-54" value="1&lt;br&gt;dueño" style="edgeLabel;html=1;align=center;verticalAlign=middle;resizable=0;points=[];" parent="8bKeLV1RBKHs6_vVbSdt-38" vertex="1" connectable="0">
          <mxGeometry x="0.8492" y="2" relative="1" as="geometry">
            <mxPoint x="-17" y="-6" as="offset" />
          </mxGeometry>
        </mxCell>
        <mxCell id="8bKeLV1RBKHs6_vVbSdt-11" value="automovil" style="swimlane;fontStyle=0;childLayout=stackLayout;horizontal=1;startSize=26;fillColor=none;horizontalStack=0;resizeParent=1;resizeParentMax=0;resizeLast=0;collapsible=1;marginBottom=0;" parent="1" vertex="1">
          <mxGeometry x="-481" y="683" width="140" height="140" as="geometry" />
        </mxCell>
        <mxCell id="8bKeLV1RBKHs6_vVbSdt-12" value="- tipo : String&#xa;- placa : String&#xa;- modelo : string " style="text;strokeColor=default;fillColor=none;align=left;verticalAlign=top;spacingLeft=4;spacingRight=4;overflow=hidden;rotatable=0;points=[[0,0.5],[1,0.5]];portConstraint=eastwest;" parent="8bKeLV1RBKHs6_vVbSdt-11" vertex="1">
          <mxGeometry y="26" width="140" height="51" as="geometry" />
        </mxCell>
        <mxCell id="8bKeLV1RBKHs6_vVbSdt-14" value="+ getTipo() : String&#xa;+ getPlace(): String&#xa;+ getModelo(): String()&#xa;+ getDueño() : Conductor" style="text;strokeColor=none;fillColor=none;align=left;verticalAlign=top;spacingLeft=4;spacingRight=4;overflow=hidden;rotatable=0;points=[[0,0.5],[1,0.5]];portConstraint=eastwest;" parent="8bKeLV1RBKHs6_vVbSdt-11" vertex="1">
          <mxGeometry y="77" width="140" height="63" as="geometry" />
        </mxCell>
        <mxCell id="8bKeLV1RBKHs6_vVbSdt-32" style="edgeStyle=orthogonalEdgeStyle;rounded=0;orthogonalLoop=1;jettySize=auto;html=1;exitX=0.601;exitY=0.002;exitDx=0;exitDy=0;entryX=0;entryY=0.5;entryDx=0;entryDy=0;endArrow=block;endFill=0;strokeWidth=1;exitPerimeter=0;" parent="1" source="yRJhLz_1n7eGuecbgBKT-46" edge="1">
          <mxGeometry relative="1" as="geometry">
            <Array as="points">
              <mxPoint x="-642" y="748" />
            </Array>
            <mxPoint x="-641" y="901" as="sourcePoint" />
          </mxGeometry>
        </mxCell>
        <mxCell id="8bKeLV1RBKHs6_vVbSdt-41" value="Extends" style="edgeLabel;html=1;align=center;verticalAlign=middle;resizable=0;points=[];" parent="8bKeLV1RBKHs6_vVbSdt-32" vertex="1" connectable="0">
          <mxGeometry x="-0.5968" y="1" relative="1" as="geometry">
            <mxPoint x="1" y="-4" as="offset" />
          </mxGeometry>
        </mxCell>
        <mxCell id="8bKeLV1RBKHs6_vVbSdt-37" style="edgeStyle=orthogonalEdgeStyle;rounded=0;orthogonalLoop=1;jettySize=auto;html=1;endArrow=block;endFill=0;strokeWidth=1;endSize=10;" parent="1" source="yRJhLz_1n7eGuecbgBKT-52" target="8bKeLV1RBKHs6_vVbSdt-11" edge="1">
          <mxGeometry relative="1" as="geometry">
            <mxPoint x="-364" y="901" as="sourcePoint" />
            <Array as="points">
              <mxPoint x="-439" y="930" />
              <mxPoint x="-439" y="930" />
            </Array>
          </mxGeometry>
        </mxCell>
        <mxCell id="8bKeLV1RBKHs6_vVbSdt-31" style="edgeStyle=orthogonalEdgeStyle;rounded=0;orthogonalLoop=1;jettySize=auto;html=1;exitX=0.556;exitY=0;exitDx=0;exitDy=0;entryX=1;entryY=0.5;entryDx=0;entryDy=0;endArrow=block;endFill=0;strokeWidth=1;exitPerimeter=0;" parent="1" source="yRJhLz_1n7eGuecbgBKT-56" edge="1">
          <mxGeometry relative="1" as="geometry">
            <mxPoint x="-67" y="901" as="sourcePoint" />
          </mxGeometry>
        </mxCell>
        <mxCell id="8bKeLV1RBKHs6_vVbSdt-39" value="Extends&lt;br&gt;" style="edgeLabel;html=1;align=center;verticalAlign=middle;resizable=0;points=[];" parent="8bKeLV1RBKHs6_vVbSdt-31" vertex="1" connectable="0">
          <mxGeometry x="-0.0869" y="2" relative="1" as="geometry">
            <mxPoint x="17" y="24" as="offset" />
          </mxGeometry>
        </mxCell>
        <mxCell id="8bKeLV1RBKHs6_vVbSdt-42" style="edgeStyle=orthogonalEdgeStyle;rounded=0;orthogonalLoop=1;jettySize=auto;html=1;endArrow=open;endFill=0;strokeWidth=1;" parent="1" edge="1">
          <mxGeometry relative="1" as="geometry">
            <mxPoint x="37.285675048828125" y="581" as="targetPoint" />
          </mxGeometry>
        </mxCell>
        <mxCell id="GQpwaOu7h-6CQK4Oy5rI-13" style="edgeStyle=orthogonalEdgeStyle;rounded=0;orthogonalLoop=1;jettySize=auto;html=1;endArrow=open;endFill=0;entryX=-0.004;entryY=0.615;entryDx=0;entryDy=0;entryPerimeter=0;exitX=1;exitY=0.269;exitDx=0;exitDy=0;exitPerimeter=0;endSize=10;" parent="1" source="yRJhLz_1n7eGuecbgBKT-82" target="yRJhLz_1n7eGuecbgBKT-12" edge="1">
          <mxGeometry relative="1" as="geometry">
            <mxPoint x="373" y="80" as="sourcePoint" />
            <mxPoint x="621" y="34" as="targetPoint" />
            <Array as="points">
              <mxPoint x="333" y="35" />
            </Array>
          </mxGeometry>
        </mxCell>
        <mxCell id="GQpwaOu7h-6CQK4Oy5rI-15" value="tarjetasDebito&lt;br&gt;" style="edgeLabel;html=1;align=center;verticalAlign=middle;resizable=0;points=[];" parent="GQpwaOu7h-6CQK4Oy5rI-13" vertex="1" connectable="0">
          <mxGeometry x="0.5446" y="-3" relative="1" as="geometry">
            <mxPoint x="36" y="-15" as="offset" />
          </mxGeometry>
        </mxCell>
        <mxCell id="GQpwaOu7h-6CQK4Oy5rI-16" value="*" style="edgeLabel;html=1;align=center;verticalAlign=middle;resizable=0;points=[];" parent="GQpwaOu7h-6CQK4Oy5rI-13" vertex="1" connectable="0">
          <mxGeometry x="0.8719" y="-2" relative="1" as="geometry">
            <mxPoint x="-55" y="-26" as="offset" />
          </mxGeometry>
        </mxCell>
        <mxCell id="GQpwaOu7h-6CQK4Oy5rI-17" style="edgeStyle=orthogonalEdgeStyle;rounded=0;orthogonalLoop=1;jettySize=auto;html=1;endArrow=open;endFill=0;endSize=10;" parent="1" source="yRJhLz_1n7eGuecbgBKT-15" target="yRJhLz_1n7eGuecbgBKT-84" edge="1">
          <mxGeometry relative="1" as="geometry">
            <mxPoint x="326" y="115" as="targetPoint" />
            <Array as="points">
              <mxPoint x="451" y="115" />
              <mxPoint x="451" y="115" />
            </Array>
            <mxPoint x="563" y="114" as="sourcePoint" />
          </mxGeometry>
        </mxCell>
        <mxCell id="GQpwaOu7h-6CQK4Oy5rI-18" value="dueño&lt;br&gt;1" style="edgeLabel;html=1;align=center;verticalAlign=middle;resizable=0;points=[];" parent="GQpwaOu7h-6CQK4Oy5rI-17" vertex="1" connectable="0">
          <mxGeometry x="0.8417" y="2" relative="1" as="geometry">
            <mxPoint x="-1" y="15" as="offset" />
          </mxGeometry>
        </mxCell>
        <mxCell id="GQpwaOu7h-6CQK4Oy5rI-19" style="edgeStyle=orthogonalEdgeStyle;rounded=0;orthogonalLoop=1;jettySize=auto;html=1;endArrow=open;endFill=0;endSize=11;" parent="1" source="yRJhLz_1n7eGuecbgBKT-67" target="_v_6MPIKIYaDayUwwzO5-1" edge="1">
          <mxGeometry relative="1" as="geometry">
            <mxPoint x="519" y="811" as="sourcePoint" />
            <mxPoint x="216.99999999999977" y="876" as="targetPoint" />
            <Array as="points">
              <mxPoint x="464" y="791" />
              <mxPoint x="464" y="791" />
            </Array>
          </mxGeometry>
        </mxCell>
        <mxCell id="GQpwaOu7h-6CQK4Oy5rI-25" value="1...*&lt;br&gt;destinos" style="edgeLabel;html=1;align=center;verticalAlign=middle;resizable=0;points=[];" parent="GQpwaOu7h-6CQK4Oy5rI-19" vertex="1" connectable="0">
          <mxGeometry x="0.5736" y="-1" relative="1" as="geometry">
            <mxPoint x="-25" y="-1" as="offset" />
          </mxGeometry>
        </mxCell>
        <mxCell id="GQpwaOu7h-6CQK4Oy5rI-20" style="edgeStyle=orthogonalEdgeStyle;rounded=0;orthogonalLoop=1;jettySize=auto;html=1;endArrow=open;endFill=0;exitX=0;exitY=0.5;exitDx=0;exitDy=0;endSize=11;" parent="1" edge="1" target="_v_6MPIKIYaDayUwwzO5-1" source="yRJhLz_1n7eGuecbgBKT-66">
          <mxGeometry relative="1" as="geometry">
            <mxPoint x="196" y="909" as="targetPoint" />
            <Array as="points">
              <mxPoint x="525" y="821" />
              <mxPoint x="436" y="821" />
              <mxPoint x="436" y="909" />
              <mxPoint x="128" y="909" />
            </Array>
            <mxPoint x="526" y="827" as="sourcePoint" />
          </mxGeometry>
        </mxCell>
        <mxCell id="GQpwaOu7h-6CQK4Oy5rI-22" value="&lt;br&gt;" style="edgeLabel;html=1;align=center;verticalAlign=middle;resizable=0;points=[];" parent="GQpwaOu7h-6CQK4Oy5rI-20" vertex="1" connectable="0">
          <mxGeometry x="0.711" y="-1" relative="1" as="geometry">
            <mxPoint x="2" y="-10" as="offset" />
          </mxGeometry>
        </mxCell>
        <mxCell id="GQpwaOu7h-6CQK4Oy5rI-23" value="1&lt;br&gt;origen&lt;br&gt;" style="edgeLabel;html=1;align=center;verticalAlign=middle;resizable=0;points=[];" parent="GQpwaOu7h-6CQK4Oy5rI-20" vertex="1" connectable="0">
          <mxGeometry x="0.8011" relative="1" as="geometry">
            <mxPoint x="23" y="-25" as="offset" />
          </mxGeometry>
        </mxCell>
        <mxCell id="GQpwaOu7h-6CQK4Oy5rI-49" style="edgeStyle=orthogonalEdgeStyle;rounded=0;orthogonalLoop=1;jettySize=auto;html=1;exitX=0.5;exitY=0;exitDx=0;exitDy=0;entryX=0.25;entryY=1;entryDx=0;entryDy=0;endArrow=block;endFill=0;endSize=10;" parent="1" source="u46MpGKwBs1GG7qnwQQI-2" target="_v_6MPIKIYaDayUwwzO5-7" edge="1">
          <mxGeometry relative="1" as="geometry" />
        </mxCell>
        <mxCell id="mi6PXNNQGqWqxz6OcjHv-24" style="edgeStyle=orthogonalEdgeStyle;rounded=0;orthogonalLoop=1;jettySize=auto;html=1;exitX=0.5;exitY=1;exitDx=0;exitDy=0;entryX=1.025;entryY=0.846;entryDx=0;entryDy=0;entryPerimeter=0;endSize=10;endArrow=open;endFill=0;" parent="1" source="u46MpGKwBs1GG7qnwQQI-2" target="yRJhLz_1n7eGuecbgBKT-32" edge="1">
          <mxGeometry relative="1" as="geometry">
            <Array as="points">
              <mxPoint x="108" y="1335" />
              <mxPoint x="108" y="1421" />
              <mxPoint x="1099" y="1421" />
              <mxPoint x="1099" y="315" />
            </Array>
            <mxPoint x="1019" y="344" as="targetPoint" />
          </mxGeometry>
        </mxCell>
        <mxCell id="u46MpGKwBs1GG7qnwQQI-2" value="pagoTarjeta" style="swimlane;fontStyle=0;childLayout=stackLayout;horizontal=1;startSize=26;fillColor=none;horizontalStack=0;resizeParent=1;resizeParentMax=0;resizeLast=0;collapsible=1;marginBottom=0;" parent="1" vertex="1">
          <mxGeometry x="84" y="1291" width="140" height="44" as="geometry">
            <mxRectangle x="38" y="1148" width="89" height="26" as="alternateBounds" />
          </mxGeometry>
        </mxCell>
        <mxCell id="GQpwaOu7h-6CQK4Oy5rI-67" style="edgeStyle=orthogonalEdgeStyle;rounded=0;orthogonalLoop=1;jettySize=auto;html=1;entryX=0.5;entryY=1;entryDx=0;entryDy=0;endArrow=block;endFill=0;endSize=10;" parent="1" source="u46MpGKwBs1GG7qnwQQI-6" target="_v_6MPIKIYaDayUwwzO5-7" edge="1">
          <mxGeometry relative="1" as="geometry" />
        </mxCell>
        <mxCell id="u46MpGKwBs1GG7qnwQQI-6" value="pago efectivo " style="swimlane;fontStyle=0;childLayout=stackLayout;horizontal=1;startSize=26;fillColor=none;horizontalStack=0;resizeParent=1;resizeParentMax=0;resizeLast=0;collapsible=1;marginBottom=0;" parent="1" vertex="1">
          <mxGeometry x="361" y="1295" width="140" height="44" as="geometry" />
        </mxCell>
        <mxCell id="GQpwaOu7h-6CQK4Oy5rI-37" style="edgeStyle=orthogonalEdgeStyle;rounded=0;orthogonalLoop=1;jettySize=auto;html=1;endArrow=open;endFill=0;strokeWidth=1;endSize=10;" parent="1" source="yRJhLz_1n7eGuecbgBKT-67" edge="1" target="yRJhLz_1n7eGuecbgBKT-41">
          <mxGeometry relative="1" as="geometry">
            <mxPoint x="909" y="706" as="targetPoint" />
            <Array as="points">
              <mxPoint x="756" y="806" />
              <mxPoint x="756" y="706" />
            </Array>
            <mxPoint x="691" y="806" as="sourcePoint" />
          </mxGeometry>
        </mxCell>
        <mxCell id="GQpwaOu7h-6CQK4Oy5rI-52" value="formularioProblema&lt;br&gt;1&lt;br&gt;" style="edgeLabel;html=1;align=center;verticalAlign=middle;resizable=0;points=[];" parent="GQpwaOu7h-6CQK4Oy5rI-37" vertex="1" connectable="0">
          <mxGeometry x="0.7769" y="2" relative="1" as="geometry">
            <mxPoint x="-14" y="18" as="offset" />
          </mxGeometry>
        </mxCell>
        <mxCell id="GQpwaOu7h-6CQK4Oy5rI-40" style="edgeStyle=orthogonalEdgeStyle;rounded=0;orthogonalLoop=1;jettySize=auto;html=1;entryX=0;entryY=0.5;entryDx=0;entryDy=0;endArrow=open;endFill=0;" parent="1" edge="1">
          <mxGeometry relative="1" as="geometry">
            <mxPoint x="40" y="459" as="sourcePoint" />
            <Array as="points">
              <mxPoint x="40" y="454" />
              <mxPoint x="271" y="454" />
              <mxPoint x="271" y="784" />
            </Array>
          </mxGeometry>
        </mxCell>
        <mxCell id="GQpwaOu7h-6CQK4Oy5rI-44" value="historialViajes&lt;br&gt;0...*" style="edgeLabel;html=1;align=center;verticalAlign=middle;resizable=0;points=[];" parent="GQpwaOu7h-6CQK4Oy5rI-40" vertex="1" connectable="0">
          <mxGeometry x="0.8018" y="-1" relative="1" as="geometry">
            <mxPoint x="12" y="-6" as="offset" />
          </mxGeometry>
        </mxCell>
        <mxCell id="mi6PXNNQGqWqxz6OcjHv-1" style="edgeStyle=orthogonalEdgeStyle;rounded=0;orthogonalLoop=1;jettySize=auto;html=1;exitX=1;exitY=0.5;exitDx=0;exitDy=0;entryX=-0.004;entryY=0.133;entryDx=0;entryDy=0;entryPerimeter=0;endArrow=open;endFill=0;endSize=10;" parent="1" source="mi6PXNNQGqWqxz6OcjHv-11" target="p-8QRYcvky3vpSZ8gG1q-1" edge="1">
          <mxGeometry relative="1" as="geometry">
            <mxPoint x="-194" y="438" as="targetPoint" />
            <Array as="points">
              <mxPoint x="-515" y="442" />
            </Array>
          </mxGeometry>
        </mxCell>
        <mxCell id="mi6PXNNQGqWqxz6OcjHv-8" value="&amp;nbsp; Conductores&amp;nbsp;&amp;nbsp;" style="edgeLabel;html=1;align=center;verticalAlign=middle;resizable=0;points=[];" parent="1" vertex="1" connectable="0">
          <mxGeometry x="-362" y="433.0042857142858" as="geometry">
            <mxPoint x="32" y="5" as="offset" />
          </mxGeometry>
        </mxCell>
        <mxCell id="mi6PXNNQGqWqxz6OcjHv-9" value="1..*" style="edgeLabel;html=1;align=center;verticalAlign=middle;resizable=0;points=[];" parent="1" vertex="1" connectable="0">
          <mxGeometry x="-217" y="416.0042857142858" as="geometry">
            <mxPoint x="32" y="5" as="offset" />
          </mxGeometry>
        </mxCell>
        <mxCell id="DsidPfJjmQOoFNHtdB2k-8" style="edgeStyle=orthogonalEdgeStyle;rounded=0;orthogonalLoop=1;jettySize=auto;html=1;endArrow=block;endFill=0;endSize=10;" edge="1" parent="1" source="mi6PXNNQGqWqxz6OcjHv-10" target="mi6PXNNQGqWqxz6OcjHv-32">
          <mxGeometry relative="1" as="geometry">
            <Array as="points">
              <mxPoint x="-609" y="191" />
            </Array>
          </mxGeometry>
        </mxCell>
        <mxCell id="mi6PXNNQGqWqxz6OcjHv-10" value="Empresa" style="swimlane;fontStyle=1;align=center;verticalAlign=top;childLayout=stackLayout;horizontal=1;startSize=26;horizontalStack=0;resizeParent=1;resizeParentMax=0;resizeLast=0;collapsible=1;marginBottom=0;" parent="1" vertex="1">
          <mxGeometry x="-703" y="404" width="188" height="113" as="geometry" />
        </mxCell>
        <mxCell id="mi6PXNNQGqWqxz6OcjHv-11" value="- name : String" style="text;strokeColor=none;fillColor=none;align=left;verticalAlign=top;spacingLeft=4;spacingRight=4;overflow=hidden;rotatable=0;points=[[0,0.5],[1,0.5]];portConstraint=eastwest;" parent="mi6PXNNQGqWqxz6OcjHv-10" vertex="1">
          <mxGeometry y="26" width="188" height="26" as="geometry" />
        </mxCell>
        <mxCell id="mi6PXNNQGqWqxz6OcjHv-12" value="" style="line;strokeWidth=1;fillColor=none;align=left;verticalAlign=middle;spacingTop=-1;spacingLeft=3;spacingRight=3;rotatable=0;labelPosition=right;points=[];portConstraint=eastwest;" parent="mi6PXNNQGqWqxz6OcjHv-10" vertex="1">
          <mxGeometry y="52" width="188" height="8" as="geometry" />
        </mxCell>
        <mxCell id="mi6PXNNQGqWqxz6OcjHv-13" value="getName() : String" style="text;strokeColor=none;fillColor=none;align=left;verticalAlign=top;spacingLeft=4;spacingRight=4;overflow=hidden;rotatable=0;points=[[0,0.5],[1,0.5]];portConstraint=eastwest;" parent="mi6PXNNQGqWqxz6OcjHv-10" vertex="1">
          <mxGeometry y="60" width="188" height="53" as="geometry" />
        </mxCell>
        <mxCell id="mi6PXNNQGqWqxz6OcjHv-14" style="edgeStyle=orthogonalEdgeStyle;rounded=0;orthogonalLoop=1;jettySize=auto;html=1;endArrow=open;endFill=0;endSize=10;" parent="1" source="NSK0_wLwRa2PUr08ak1v-19" target="mi6PXNNQGqWqxz6OcjHv-10" edge="1">
          <mxGeometry relative="1" as="geometry">
            <mxPoint x="-179" y="455" as="sourcePoint" />
            <Array as="points">
              <mxPoint x="-305" y="468" />
              <mxPoint x="-305" y="493" />
            </Array>
          </mxGeometry>
        </mxCell>
        <mxCell id="mi6PXNNQGqWqxz6OcjHv-15" value="&amp;nbsp; Empresa&amp;nbsp;&amp;nbsp;" style="edgeLabel;html=1;align=center;verticalAlign=middle;resizable=0;points=[];" parent="1" vertex="1" connectable="0">
          <mxGeometry x="-215" y="454.0042857142858" as="geometry">
            <mxPoint x="32" y="5" as="offset" />
          </mxGeometry>
        </mxCell>
        <mxCell id="mi6PXNNQGqWqxz6OcjHv-16" value="1..1" style="edgeLabel;html=1;align=center;verticalAlign=middle;resizable=0;points=[];" parent="1" vertex="1" connectable="0">
          <mxGeometry x="-519" y="476.0042857142858" as="geometry">
            <mxPoint x="32" y="5" as="offset" />
          </mxGeometry>
        </mxCell>
        <mxCell id="mi6PXNNQGqWqxz6OcjHv-21" value="viaje&lt;br&gt;1..1" style="edgeLabel;html=1;align=center;verticalAlign=middle;resizable=0;points=[];" parent="1" vertex="1" connectable="0">
          <mxGeometry x="557.0024137931038" y="1061" as="geometry">
            <mxPoint x="1" y="-10" as="offset" />
          </mxGeometry>
        </mxCell>
        <mxCell id="mi6PXNNQGqWqxz6OcjHv-25" value="tarjeta&lt;br&gt;1..1" style="edgeLabel;html=1;align=center;verticalAlign=middle;resizable=0;points=[];" parent="1" vertex="1" connectable="0">
          <mxGeometry x="617.0024137931038" y="901" as="geometry">
            <mxPoint x="447" y="-608" as="offset" />
          </mxGeometry>
        </mxCell>
        <mxCell id="mi6PXNNQGqWqxz6OcjHv-32" value="pagoConductor" style="swimlane;fontStyle=0;childLayout=stackLayout;horizontal=1;startSize=26;fillColor=none;horizontalStack=0;resizeParent=1;resizeParentMax=0;resizeLast=0;collapsible=1;marginBottom=0;" parent="1" vertex="1">
          <mxGeometry x="-305" y="172" width="140" height="62" as="geometry" />
        </mxCell>
        <mxCell id="mi6PXNNQGqWqxz6OcjHv-33" value="- salario : int" style="text;html=1;align=left;verticalAlign=middle;resizable=0;points=[];autosize=1;strokeColor=none;fillColor=none;" parent="mi6PXNNQGqWqxz6OcjHv-32" vertex="1">
          <mxGeometry y="26" width="140" height="18" as="geometry" />
        </mxCell>
        <mxCell id="mi6PXNNQGqWqxz6OcjHv-34" value="&lt;i&gt;&lt;b&gt;&lt;i&gt;+ getSalario() : int&lt;br&gt;&lt;/i&gt;&lt;/b&gt;&lt;/i&gt;" style="text;html=1;align=left;verticalAlign=middle;resizable=0;points=[];autosize=1;strokeColor=default;fillColor=none;" parent="mi6PXNNQGqWqxz6OcjHv-32" vertex="1">
          <mxGeometry y="44" width="140" height="18" as="geometry" />
        </mxCell>
        <mxCell id="mi6PXNNQGqWqxz6OcjHv-37" style="edgeStyle=orthogonalEdgeStyle;rounded=0;orthogonalLoop=1;jettySize=auto;html=1;entryX=0.116;entryY=0.026;entryDx=0;entryDy=0;entryPerimeter=0;" parent="1" target="yRJhLz_1n7eGuecbgBKT-5" edge="1">
          <mxGeometry relative="1" as="geometry">
            <mxPoint x="32.24000000000001" y="601.028" as="targetPoint" />
          </mxGeometry>
        </mxCell>
        <mxCell id="mi6PXNNQGqWqxz6OcjHv-38" value="historialUbicaciones&amp;nbsp;&lt;br&gt;1..*" style="edgeLabel;html=1;align=center;verticalAlign=middle;resizable=0;points=[];" parent="1" vertex="1" connectable="0">
          <mxGeometry x="300" y="563.9971428571429" as="geometry">
            <mxPoint y="10" as="offset" />
          </mxGeometry>
        </mxCell>
        <mxCell id="yRJhLz_1n7eGuecbgBKT-5" value="Posicion" style="swimlane;fontStyle=1;align=center;verticalAlign=top;childLayout=stackLayout;horizontal=1;startSize=26;horizontalStack=0;resizeParent=1;resizeParentMax=0;resizeLast=0;collapsible=1;marginBottom=0;" parent="1" vertex="1">
          <mxGeometry x="161" y="594" width="160" height="112" as="geometry" />
        </mxCell>
        <mxCell id="yRJhLz_1n7eGuecbgBKT-6" value="- latitud: float" style="text;strokeColor=none;fillColor=none;align=left;verticalAlign=top;spacingLeft=4;spacingRight=4;overflow=hidden;rotatable=0;points=[[0,0.5],[1,0.5]];portConstraint=eastwest;" parent="yRJhLz_1n7eGuecbgBKT-5" vertex="1">
          <mxGeometry y="26" width="160" height="26" as="geometry" />
        </mxCell>
        <mxCell id="yRJhLz_1n7eGuecbgBKT-4" value="- longitud:float" style="text;strokeColor=none;fillColor=none;align=left;verticalAlign=top;spacingLeft=4;spacingRight=4;overflow=hidden;rotatable=0;points=[[0,0.5],[1,0.5]];portConstraint=eastwest;" parent="yRJhLz_1n7eGuecbgBKT-5" vertex="1">
          <mxGeometry y="52" width="160" height="26" as="geometry" />
        </mxCell>
        <mxCell id="yRJhLz_1n7eGuecbgBKT-7" value="" style="line;strokeWidth=1;fillColor=none;align=left;verticalAlign=middle;spacingTop=-1;spacingLeft=3;spacingRight=3;rotatable=0;labelPosition=right;points=[];portConstraint=eastwest;" parent="yRJhLz_1n7eGuecbgBKT-5" vertex="1">
          <mxGeometry y="78" width="160" height="8" as="geometry" />
        </mxCell>
        <mxCell id="yRJhLz_1n7eGuecbgBKT-8" value="+ darPosicion" style="text;strokeColor=none;fillColor=none;align=left;verticalAlign=top;spacingLeft=4;spacingRight=4;overflow=hidden;rotatable=0;points=[[0,0.5],[1,0.5]];portConstraint=eastwest;" parent="yRJhLz_1n7eGuecbgBKT-5" vertex="1">
          <mxGeometry y="86" width="160" height="26" as="geometry" />
        </mxCell>
        <mxCell id="yRJhLz_1n7eGuecbgBKT-15" value="tarjetaDebito" style="swimlane;fontStyle=1;align=center;verticalAlign=top;childLayout=stackLayout;horizontal=1;startSize=26;horizontalStack=0;resizeParent=1;resizeParentMax=0;resizeLast=0;collapsible=1;marginBottom=0;" parent="1" vertex="1">
          <mxGeometry x="654" y="-6" width="160" height="242" as="geometry">
            <mxRectangle x="587" y="194" width="90" height="26" as="alternateBounds" />
          </mxGeometry>
        </mxCell>
        <mxCell id="yRJhLz_1n7eGuecbgBKT-12" value="- cvc : int " style="text;strokeColor=none;fillColor=none;align=left;verticalAlign=top;spacingLeft=4;spacingRight=4;overflow=hidden;rotatable=0;points=[[0,0.5],[1,0.5]];portConstraint=eastwest;" parent="yRJhLz_1n7eGuecbgBKT-15" vertex="1">
          <mxGeometry y="26" width="160" height="26" as="geometry" />
        </mxCell>
        <mxCell id="yRJhLz_1n7eGuecbgBKT-13" value="- saldo : float" style="text;strokeColor=none;fillColor=none;align=left;verticalAlign=top;spacingLeft=4;spacingRight=4;overflow=hidden;rotatable=0;points=[[0,0.5],[1,0.5]];portConstraint=eastwest;" parent="yRJhLz_1n7eGuecbgBKT-15" vertex="1">
          <mxGeometry y="52" width="160" height="26" as="geometry" />
        </mxCell>
        <mxCell id="yRJhLz_1n7eGuecbgBKT-11" value="- numero : int" style="text;strokeColor=none;fillColor=none;align=left;verticalAlign=top;spacingLeft=4;spacingRight=4;overflow=hidden;rotatable=0;points=[[0,0.5],[1,0.5]];portConstraint=eastwest;" parent="yRJhLz_1n7eGuecbgBKT-15" vertex="1">
          <mxGeometry y="78" width="160" height="26" as="geometry" />
        </mxCell>
        <mxCell id="yRJhLz_1n7eGuecbgBKT-14" value="- redGlobal : String" style="text;strokeColor=none;fillColor=none;align=left;verticalAlign=top;spacingLeft=4;spacingRight=4;overflow=hidden;rotatable=0;points=[[0,0.5],[1,0.5]];portConstraint=eastwest;" parent="yRJhLz_1n7eGuecbgBKT-15" vertex="1">
          <mxGeometry y="104" width="160" height="26" as="geometry" />
        </mxCell>
        <mxCell id="yRJhLz_1n7eGuecbgBKT-17" value="" style="line;strokeWidth=1;fillColor=none;align=left;verticalAlign=middle;spacingTop=-1;spacingLeft=3;spacingRight=3;rotatable=0;labelPosition=right;points=[];portConstraint=eastwest;" parent="yRJhLz_1n7eGuecbgBKT-15" vertex="1">
          <mxGeometry y="130" width="160" height="8" as="geometry" />
        </mxCell>
        <mxCell id="yRJhLz_1n7eGuecbgBKT-18" value="+ darCvc()" style="text;strokeColor=none;fillColor=none;align=left;verticalAlign=top;spacingLeft=4;spacingRight=4;overflow=hidden;rotatable=0;points=[[0,0.5],[1,0.5]];portConstraint=eastwest;" parent="yRJhLz_1n7eGuecbgBKT-15" vertex="1">
          <mxGeometry y="138" width="160" height="26" as="geometry" />
        </mxCell>
        <mxCell id="yRJhLz_1n7eGuecbgBKT-20" value="+ darRedGlobal()" style="text;strokeColor=none;fillColor=none;align=left;verticalAlign=top;spacingLeft=4;spacingRight=4;overflow=hidden;rotatable=0;points=[[0,0.5],[1,0.5]];portConstraint=eastwest;" parent="yRJhLz_1n7eGuecbgBKT-15" vertex="1">
          <mxGeometry y="164" width="160" height="26" as="geometry" />
        </mxCell>
        <mxCell id="yRJhLz_1n7eGuecbgBKT-21" value="+darNumero()" style="text;strokeColor=none;fillColor=none;align=left;verticalAlign=top;spacingLeft=4;spacingRight=4;overflow=hidden;rotatable=0;points=[[0,0.5],[1,0.5]];portConstraint=eastwest;" parent="yRJhLz_1n7eGuecbgBKT-15" vertex="1">
          <mxGeometry y="190" width="160" height="26" as="geometry" />
        </mxCell>
        <mxCell id="yRJhLz_1n7eGuecbgBKT-22" value="+ darSaldo()" style="text;strokeColor=none;fillColor=none;align=left;verticalAlign=top;spacingLeft=4;spacingRight=4;overflow=hidden;rotatable=0;points=[[0,0.5],[1,0.5]];portConstraint=eastwest;" parent="yRJhLz_1n7eGuecbgBKT-15" vertex="1">
          <mxGeometry y="216" width="160" height="26" as="geometry" />
        </mxCell>
        <mxCell id="yRJhLz_1n7eGuecbgBKT-23" value="tarjetaCredito" style="swimlane;fontStyle=1;align=center;verticalAlign=top;childLayout=stackLayout;horizontal=1;startSize=26;horizontalStack=0;resizeParent=1;resizeParentMax=0;resizeLast=0;collapsible=1;marginBottom=0;" parent="1" vertex="1">
          <mxGeometry x="858" y="215" width="160" height="294" as="geometry" />
        </mxCell>
        <mxCell id="yRJhLz_1n7eGuecbgBKT-30" value="+ redGlobal : String" style="text;strokeColor=none;fillColor=none;align=left;verticalAlign=top;spacingLeft=4;spacingRight=4;overflow=hidden;rotatable=0;points=[[0,0.5],[1,0.5]];portConstraint=eastwest;" parent="yRJhLz_1n7eGuecbgBKT-23" vertex="1">
          <mxGeometry y="26" width="160" height="26" as="geometry" />
        </mxCell>
        <mxCell id="yRJhLz_1n7eGuecbgBKT-29" value="+ dueño : persona" style="text;strokeColor=none;fillColor=none;align=left;verticalAlign=top;spacingLeft=4;spacingRight=4;overflow=hidden;rotatable=0;points=[[0,0.5],[1,0.5]];portConstraint=eastwest;" parent="yRJhLz_1n7eGuecbgBKT-23" vertex="1">
          <mxGeometry y="52" width="160" height="26" as="geometry" />
        </mxCell>
        <mxCell id="yRJhLz_1n7eGuecbgBKT-32" value="+ cupo  : float " style="text;strokeColor=none;fillColor=none;align=left;verticalAlign=top;spacingLeft=4;spacingRight=4;overflow=hidden;rotatable=0;points=[[0,0.5],[1,0.5]];portConstraint=eastwest;" parent="yRJhLz_1n7eGuecbgBKT-23" vertex="1">
          <mxGeometry y="78" width="160" height="26" as="geometry" />
        </mxCell>
        <mxCell id="yRJhLz_1n7eGuecbgBKT-31" value="+ cvc : int " style="text;strokeColor=none;fillColor=none;align=left;verticalAlign=top;spacingLeft=4;spacingRight=4;overflow=hidden;rotatable=0;points=[[0,0.5],[1,0.5]];portConstraint=eastwest;" parent="yRJhLz_1n7eGuecbgBKT-23" vertex="1">
          <mxGeometry y="104" width="160" height="26" as="geometry" />
        </mxCell>
        <mxCell id="yRJhLz_1n7eGuecbgBKT-28" value="+ numero : int" style="text;strokeColor=none;fillColor=none;align=left;verticalAlign=top;spacingLeft=4;spacingRight=4;overflow=hidden;rotatable=0;points=[[0,0.5],[1,0.5]];portConstraint=eastwest;" parent="yRJhLz_1n7eGuecbgBKT-23" vertex="1">
          <mxGeometry y="130" width="160" height="26" as="geometry" />
        </mxCell>
        <mxCell id="yRJhLz_1n7eGuecbgBKT-25" value="" style="line;strokeWidth=1;fillColor=none;align=left;verticalAlign=middle;spacingTop=-1;spacingLeft=3;spacingRight=3;rotatable=0;labelPosition=right;points=[];portConstraint=eastwest;" parent="yRJhLz_1n7eGuecbgBKT-23" vertex="1">
          <mxGeometry y="156" width="160" height="8" as="geometry" />
        </mxCell>
        <mxCell id="yRJhLz_1n7eGuecbgBKT-26" value="+ darCvc()" style="text;strokeColor=none;fillColor=none;align=left;verticalAlign=top;spacingLeft=4;spacingRight=4;overflow=hidden;rotatable=0;points=[[0,0.5],[1,0.5]];portConstraint=eastwest;" parent="yRJhLz_1n7eGuecbgBKT-23" vertex="1">
          <mxGeometry y="164" width="160" height="26" as="geometry" />
        </mxCell>
        <mxCell id="yRJhLz_1n7eGuecbgBKT-33" value="+ darRedGlobal()" style="text;strokeColor=none;fillColor=none;align=left;verticalAlign=top;spacingLeft=4;spacingRight=4;overflow=hidden;rotatable=0;points=[[0,0.5],[1,0.5]];portConstraint=eastwest;" parent="yRJhLz_1n7eGuecbgBKT-23" vertex="1">
          <mxGeometry y="190" width="160" height="26" as="geometry" />
        </mxCell>
        <mxCell id="yRJhLz_1n7eGuecbgBKT-34" value="+darNumero()" style="text;strokeColor=none;fillColor=none;align=left;verticalAlign=top;spacingLeft=4;spacingRight=4;overflow=hidden;rotatable=0;points=[[0,0.5],[1,0.5]];portConstraint=eastwest;" parent="yRJhLz_1n7eGuecbgBKT-23" vertex="1">
          <mxGeometry y="216" width="160" height="26" as="geometry" />
        </mxCell>
        <mxCell id="yRJhLz_1n7eGuecbgBKT-35" value="+ darSaldo()" style="text;strokeColor=none;fillColor=none;align=left;verticalAlign=top;spacingLeft=4;spacingRight=4;overflow=hidden;rotatable=0;points=[[0,0.5],[1,0.5]];portConstraint=eastwest;" parent="yRJhLz_1n7eGuecbgBKT-23" vertex="1">
          <mxGeometry y="242" width="160" height="26" as="geometry" />
        </mxCell>
        <mxCell id="yRJhLz_1n7eGuecbgBKT-36" value="+ darCupo()" style="text;strokeColor=none;fillColor=none;align=left;verticalAlign=top;spacingLeft=4;spacingRight=4;overflow=hidden;rotatable=0;points=[[0,0.5],[1,0.5]];portConstraint=eastwest;" parent="yRJhLz_1n7eGuecbgBKT-23" vertex="1">
          <mxGeometry y="268" width="160" height="26" as="geometry" />
        </mxCell>
        <mxCell id="yRJhLz_1n7eGuecbgBKT-41" value="formulario" style="swimlane;fontStyle=1;align=center;verticalAlign=top;childLayout=stackLayout;horizontal=1;startSize=26;horizontalStack=0;resizeParent=1;resizeParentMax=0;resizeLast=0;collapsible=1;marginBottom=0;" parent="1" vertex="1">
          <mxGeometry x="903" y="659" width="160" height="78" as="geometry" />
        </mxCell>
        <mxCell id="yRJhLz_1n7eGuecbgBKT-40" value="- comentarios: String " style="text;strokeColor=none;fillColor=none;align=left;verticalAlign=top;spacingLeft=4;spacingRight=4;overflow=hidden;rotatable=0;points=[[0,0.5],[1,0.5]];portConstraint=eastwest;" parent="yRJhLz_1n7eGuecbgBKT-41" vertex="1">
          <mxGeometry y="26" width="160" height="26" as="geometry" />
        </mxCell>
        <mxCell id="yRJhLz_1n7eGuecbgBKT-39" value="- problemas: String[]" style="text;strokeColor=none;fillColor=none;align=left;verticalAlign=top;spacingLeft=4;spacingRight=4;overflow=hidden;rotatable=0;points=[[0,0.5],[1,0.5]];portConstraint=eastwest;" parent="yRJhLz_1n7eGuecbgBKT-41" vertex="1">
          <mxGeometry y="52" width="160" height="26" as="geometry" />
        </mxCell>
        <mxCell id="yRJhLz_1n7eGuecbgBKT-46" value="clase A" style="swimlane;fontStyle=1;align=center;verticalAlign=top;childLayout=stackLayout;horizontal=1;startSize=26;horizontalStack=0;resizeParent=1;resizeParentMax=0;resizeLast=0;collapsible=1;marginBottom=0;" parent="1" vertex="1">
          <mxGeometry x="-738" y="901" width="160" height="85" as="geometry" />
        </mxCell>
        <mxCell id="yRJhLz_1n7eGuecbgBKT-51" value="+ porcentaje : float" style="text;strokeColor=none;fillColor=none;align=left;verticalAlign=top;spacingLeft=4;spacingRight=4;overflow=hidden;rotatable=0;points=[[0,0.5],[1,0.5]];portConstraint=eastwest;" parent="yRJhLz_1n7eGuecbgBKT-46" vertex="1">
          <mxGeometry y="26" width="160" height="25" as="geometry" />
        </mxCell>
        <mxCell id="yRJhLz_1n7eGuecbgBKT-48" value="" style="line;strokeWidth=1;fillColor=none;align=left;verticalAlign=middle;spacingTop=-1;spacingLeft=3;spacingRight=3;rotatable=0;labelPosition=right;points=[];portConstraint=eastwest;" parent="yRJhLz_1n7eGuecbgBKT-46" vertex="1">
          <mxGeometry y="51" width="160" height="8" as="geometry" />
        </mxCell>
        <mxCell id="yRJhLz_1n7eGuecbgBKT-49" value="+darPorcentaje" style="text;strokeColor=none;fillColor=none;align=left;verticalAlign=top;spacingLeft=4;spacingRight=4;overflow=hidden;rotatable=0;points=[[0,0.5],[1,0.5]];portConstraint=eastwest;" parent="yRJhLz_1n7eGuecbgBKT-46" vertex="1">
          <mxGeometry y="59" width="160" height="26" as="geometry" />
        </mxCell>
        <mxCell id="yRJhLz_1n7eGuecbgBKT-52" value="clase B" style="swimlane;fontStyle=1;align=center;verticalAlign=top;childLayout=stackLayout;horizontal=1;startSize=26;horizontalStack=0;resizeParent=1;resizeParentMax=0;resizeLast=0;collapsible=1;marginBottom=0;" parent="1" vertex="1">
          <mxGeometry x="-522" y="1052" width="160" height="85" as="geometry" />
        </mxCell>
        <mxCell id="yRJhLz_1n7eGuecbgBKT-53" value="+ porcentaje : float" style="text;strokeColor=none;fillColor=none;align=left;verticalAlign=top;spacingLeft=4;spacingRight=4;overflow=hidden;rotatable=0;points=[[0,0.5],[1,0.5]];portConstraint=eastwest;" parent="yRJhLz_1n7eGuecbgBKT-52" vertex="1">
          <mxGeometry y="26" width="160" height="25" as="geometry" />
        </mxCell>
        <mxCell id="yRJhLz_1n7eGuecbgBKT-54" value="" style="line;strokeWidth=1;fillColor=none;align=left;verticalAlign=middle;spacingTop=-1;spacingLeft=3;spacingRight=3;rotatable=0;labelPosition=right;points=[];portConstraint=eastwest;" parent="yRJhLz_1n7eGuecbgBKT-52" vertex="1">
          <mxGeometry y="51" width="160" height="8" as="geometry" />
        </mxCell>
        <mxCell id="yRJhLz_1n7eGuecbgBKT-55" value="+darPorcentaje" style="text;strokeColor=none;fillColor=none;align=left;verticalAlign=top;spacingLeft=4;spacingRight=4;overflow=hidden;rotatable=0;points=[[0,0.5],[1,0.5]];portConstraint=eastwest;" parent="yRJhLz_1n7eGuecbgBKT-52" vertex="1">
          <mxGeometry y="59" width="160" height="26" as="geometry" />
        </mxCell>
        <mxCell id="yRJhLz_1n7eGuecbgBKT-56" value="clase C" style="swimlane;fontStyle=1;align=center;verticalAlign=top;childLayout=stackLayout;horizontal=1;startSize=26;horizontalStack=0;resizeParent=1;resizeParentMax=0;resizeLast=0;collapsible=1;marginBottom=0;" parent="1" vertex="1">
          <mxGeometry x="-322" y="957" width="160" height="85" as="geometry" />
        </mxCell>
        <mxCell id="yRJhLz_1n7eGuecbgBKT-57" value="+ porcentaje : float" style="text;strokeColor=none;fillColor=none;align=left;verticalAlign=top;spacingLeft=4;spacingRight=4;overflow=hidden;rotatable=0;points=[[0,0.5],[1,0.5]];portConstraint=eastwest;" parent="yRJhLz_1n7eGuecbgBKT-56" vertex="1">
          <mxGeometry y="26" width="160" height="25" as="geometry" />
        </mxCell>
        <mxCell id="yRJhLz_1n7eGuecbgBKT-58" value="" style="line;strokeWidth=1;fillColor=none;align=left;verticalAlign=middle;spacingTop=-1;spacingLeft=3;spacingRight=3;rotatable=0;labelPosition=right;points=[];portConstraint=eastwest;" parent="yRJhLz_1n7eGuecbgBKT-56" vertex="1">
          <mxGeometry y="51" width="160" height="8" as="geometry" />
        </mxCell>
        <mxCell id="yRJhLz_1n7eGuecbgBKT-59" value="+darPorcentaje" style="text;strokeColor=none;fillColor=none;align=left;verticalAlign=top;spacingLeft=4;spacingRight=4;overflow=hidden;rotatable=0;points=[[0,0.5],[1,0.5]];portConstraint=eastwest;" parent="yRJhLz_1n7eGuecbgBKT-56" vertex="1">
          <mxGeometry y="59" width="160" height="26" as="geometry" />
        </mxCell>
        <mxCell id="yRJhLz_1n7eGuecbgBKT-67" value="viaje " style="swimlane;fontStyle=1;align=center;verticalAlign=top;childLayout=stackLayout;horizontal=1;startSize=26;horizontalStack=0;resizeParent=1;resizeParentMax=0;resizeLast=0;collapsible=1;marginBottom=0;" parent="1" vertex="1">
          <mxGeometry x="525" y="752" width="160" height="78" as="geometry" />
        </mxCell>
        <mxCell id="yRJhLz_1n7eGuecbgBKT-65" value="+ distancia : float" style="text;strokeColor=none;fillColor=none;align=left;verticalAlign=top;spacingLeft=4;spacingRight=4;overflow=hidden;rotatable=0;points=[[0,0.5],[1,0.5]];portConstraint=eastwest;" parent="yRJhLz_1n7eGuecbgBKT-67" vertex="1">
          <mxGeometry y="26" width="160" height="26" as="geometry" />
        </mxCell>
        <mxCell id="yRJhLz_1n7eGuecbgBKT-66" value="+ costo : float&#xa;" style="text;strokeColor=none;fillColor=none;align=left;verticalAlign=top;spacingLeft=4;spacingRight=4;overflow=hidden;rotatable=0;points=[[0,0.5],[1,0.5]];portConstraint=eastwest;" parent="yRJhLz_1n7eGuecbgBKT-67" vertex="1">
          <mxGeometry y="52" width="160" height="26" as="geometry" />
        </mxCell>
        <mxCell id="yRJhLz_1n7eGuecbgBKT-72" style="edgeStyle=orthogonalEdgeStyle;rounded=0;orthogonalLoop=1;jettySize=auto;html=1;exitX=0.558;exitY=0.011;exitDx=0;exitDy=0;endArrow=block;endFill=0;strokeWidth=1;exitPerimeter=0;endSize=10;" parent="1" target="8bKeLV1RBKHs6_vVbSdt-11" edge="1">
          <mxGeometry relative="1" as="geometry">
            <mxPoint x="-661.9999999999998" y="901.005" as="sourcePoint" />
            <Array as="points">
              <mxPoint x="-662" y="763" />
            </Array>
            <mxPoint x="-483" y="791" as="targetPoint" />
          </mxGeometry>
        </mxCell>
        <mxCell id="yRJhLz_1n7eGuecbgBKT-74" style="edgeStyle=orthogonalEdgeStyle;rounded=0;orthogonalLoop=1;jettySize=auto;html=1;endArrow=block;endFill=0;strokeWidth=1;endSize=10;" parent="1" source="yRJhLz_1n7eGuecbgBKT-56" target="8bKeLV1RBKHs6_vVbSdt-11" edge="1">
          <mxGeometry relative="1" as="geometry">
            <mxPoint x="-177" y="821" as="sourcePoint" />
            <Array as="points">
              <mxPoint x="-222" y="771" />
            </Array>
            <mxPoint x="-286" y="771" as="targetPoint" />
          </mxGeometry>
        </mxCell>
        <mxCell id="yRJhLz_1n7eGuecbgBKT-84" value="persona" style="swimlane;fontStyle=1;align=center;verticalAlign=top;childLayout=stackLayout;horizontal=1;startSize=26;horizontalStack=0;resizeParent=1;resizeParentMax=0;resizeLast=0;collapsible=1;marginBottom=0;" parent="1" vertex="1">
          <mxGeometry x="142" y="-98" width="191" height="398" as="geometry" />
        </mxCell>
        <mxCell id="yRJhLz_1n7eGuecbgBKT-77" value="- nombre: String" style="text;strokeColor=none;fillColor=none;align=left;verticalAlign=top;spacingLeft=4;spacingRight=4;overflow=hidden;rotatable=0;points=[[0,0.5],[1,0.5]];portConstraint=eastwest;" parent="yRJhLz_1n7eGuecbgBKT-84" vertex="1">
          <mxGeometry y="26" width="191" height="26" as="geometry" />
        </mxCell>
        <mxCell id="yRJhLz_1n7eGuecbgBKT-78" value="- cédula: numero" style="text;strokeColor=none;fillColor=none;align=left;verticalAlign=top;spacingLeft=4;spacingRight=4;overflow=hidden;rotatable=0;points=[[0,0.5],[1,0.5]];portConstraint=eastwest;" parent="yRJhLz_1n7eGuecbgBKT-84" vertex="1">
          <mxGeometry y="52" width="191" height="26" as="geometry" />
        </mxCell>
        <mxCell id="yRJhLz_1n7eGuecbgBKT-81" value="- edad: int" style="text;strokeColor=none;fillColor=none;align=left;verticalAlign=top;spacingLeft=4;spacingRight=4;overflow=hidden;rotatable=0;points=[[0,0.5],[1,0.5]];portConstraint=eastwest;" parent="yRJhLz_1n7eGuecbgBKT-84" vertex="1">
          <mxGeometry y="78" width="191" height="26" as="geometry" />
        </mxCell>
        <mxCell id="yRJhLz_1n7eGuecbgBKT-83" value="- calificacionPromedio: float[]" style="text;strokeColor=none;fillColor=none;align=left;verticalAlign=top;spacingLeft=4;spacingRight=4;overflow=hidden;rotatable=0;points=[[0,0.5],[1,0.5]];portConstraint=eastwest;" parent="yRJhLz_1n7eGuecbgBKT-84" vertex="1">
          <mxGeometry y="104" width="191" height="26" as="geometry" />
        </mxCell>
        <mxCell id="yRJhLz_1n7eGuecbgBKT-82" value="- efectivo: float" style="text;strokeColor=none;fillColor=none;align=left;verticalAlign=top;spacingLeft=4;spacingRight=4;overflow=hidden;rotatable=0;points=[[0,0.5],[1,0.5]];portConstraint=eastwest;" parent="yRJhLz_1n7eGuecbgBKT-84" vertex="1">
          <mxGeometry y="130" width="191" height="26" as="geometry" />
        </mxCell>
        <mxCell id="yRJhLz_1n7eGuecbgBKT-79" value="- correo: string" style="text;strokeColor=none;fillColor=none;align=left;verticalAlign=top;spacingLeft=4;spacingRight=4;overflow=hidden;rotatable=0;points=[[0,0.5],[1,0.5]];portConstraint=eastwest;" parent="yRJhLz_1n7eGuecbgBKT-84" vertex="1">
          <mxGeometry y="156" width="191" height="26" as="geometry" />
        </mxCell>
        <mxCell id="yRJhLz_1n7eGuecbgBKT-80" value="- celular: String&#xa;" style="text;strokeColor=none;fillColor=none;align=left;verticalAlign=top;spacingLeft=4;spacingRight=4;overflow=hidden;rotatable=0;points=[[0,0.5],[1,0.5]];portConstraint=eastwest;" parent="yRJhLz_1n7eGuecbgBKT-84" vertex="1">
          <mxGeometry y="182" width="191" height="26" as="geometry" />
        </mxCell>
        <mxCell id="yRJhLz_1n7eGuecbgBKT-86" value="" style="line;strokeWidth=1;fillColor=none;align=left;verticalAlign=middle;spacingTop=-1;spacingLeft=3;spacingRight=3;rotatable=0;labelPosition=right;points=[];portConstraint=eastwest;" parent="yRJhLz_1n7eGuecbgBKT-84" vertex="1">
          <mxGeometry y="208" width="191" height="8" as="geometry" />
        </mxCell>
        <mxCell id="yRJhLz_1n7eGuecbgBKT-87" value="+ getNombre()" style="text;strokeColor=none;fillColor=none;align=left;verticalAlign=top;spacingLeft=4;spacingRight=4;overflow=hidden;rotatable=0;points=[[0,0.5],[1,0.5]];portConstraint=eastwest;" parent="yRJhLz_1n7eGuecbgBKT-84" vertex="1">
          <mxGeometry y="216" width="191" height="26" as="geometry" />
        </mxCell>
        <mxCell id="yRJhLz_1n7eGuecbgBKT-88" value="+ getCedula()" style="text;strokeColor=none;fillColor=none;align=left;verticalAlign=top;spacingLeft=4;spacingRight=4;overflow=hidden;rotatable=0;points=[[0,0.5],[1,0.5]];portConstraint=eastwest;" parent="yRJhLz_1n7eGuecbgBKT-84" vertex="1">
          <mxGeometry y="242" width="191" height="26" as="geometry" />
        </mxCell>
        <mxCell id="yRJhLz_1n7eGuecbgBKT-89" value="+ getCelular()" style="text;strokeColor=none;fillColor=none;align=left;verticalAlign=top;spacingLeft=4;spacingRight=4;overflow=hidden;rotatable=0;points=[[0,0.5],[1,0.5]];portConstraint=eastwest;" parent="yRJhLz_1n7eGuecbgBKT-84" vertex="1">
          <mxGeometry y="268" width="191" height="26" as="geometry" />
        </mxCell>
        <mxCell id="yRJhLz_1n7eGuecbgBKT-90" value="+ getEdad()" style="text;strokeColor=none;fillColor=none;align=left;verticalAlign=top;spacingLeft=4;spacingRight=4;overflow=hidden;rotatable=0;points=[[0,0.5],[1,0.5]];portConstraint=eastwest;" parent="yRJhLz_1n7eGuecbgBKT-84" vertex="1">
          <mxGeometry y="294" width="191" height="26" as="geometry" />
        </mxCell>
        <mxCell id="yRJhLz_1n7eGuecbgBKT-91" value="+ getCalificacionPromedio()" style="text;strokeColor=none;fillColor=none;align=left;verticalAlign=top;spacingLeft=4;spacingRight=4;overflow=hidden;rotatable=0;points=[[0,0.5],[1,0.5]];portConstraint=eastwest;" parent="yRJhLz_1n7eGuecbgBKT-84" vertex="1">
          <mxGeometry y="320" width="191" height="26" as="geometry" />
        </mxCell>
        <mxCell id="yRJhLz_1n7eGuecbgBKT-93" value="+ devolverCorreo()" style="text;strokeColor=none;fillColor=none;align=left;verticalAlign=top;spacingLeft=4;spacingRight=4;overflow=hidden;rotatable=0;points=[[0,0.5],[1,0.5]];portConstraint=eastwest;" parent="yRJhLz_1n7eGuecbgBKT-84" vertex="1">
          <mxGeometry y="346" width="191" height="26" as="geometry" />
        </mxCell>
        <mxCell id="yRJhLz_1n7eGuecbgBKT-94" value="+ devolverEfectivo()" style="text;strokeColor=none;fillColor=none;align=left;verticalAlign=top;spacingLeft=4;spacingRight=4;overflow=hidden;rotatable=0;points=[[0,0.5],[1,0.5]];portConstraint=eastwest;" parent="yRJhLz_1n7eGuecbgBKT-84" vertex="1">
          <mxGeometry y="372" width="191" height="26" as="geometry" />
        </mxCell>
        <mxCell id="p-8QRYcvky3vpSZ8gG1q-9" style="edgeStyle=orthogonalEdgeStyle;rounded=0;orthogonalLoop=1;jettySize=auto;html=1;endArrow=openThin;endFill=0;endSize=10;" parent="1" source="p-8QRYcvky3vpSZ8gG1q-1" target="yRJhLz_1n7eGuecbgBKT-5" edge="1">
          <mxGeometry relative="1" as="geometry">
            <Array as="points">
              <mxPoint x="240" y="484" />
            </Array>
            <mxPoint x="244" y="604" as="targetPoint" />
          </mxGeometry>
        </mxCell>
        <mxCell id="DsidPfJjmQOoFNHtdB2k-11" style="edgeStyle=orthogonalEdgeStyle;rounded=0;orthogonalLoop=1;jettySize=auto;html=1;endArrow=open;endFill=0;endSize=10;" edge="1" parent="1" source="NSK0_wLwRa2PUr08ak1v-19" target="yRJhLz_1n7eGuecbgBKT-67">
          <mxGeometry relative="1" as="geometry">
            <mxPoint x="597" y="762" as="targetPoint" />
            <mxPoint x="481.5" y="448" as="sourcePoint" />
            <Array as="points">
              <mxPoint x="-66" y="1028" />
              <mxPoint x="597" y="1028" />
            </Array>
          </mxGeometry>
        </mxCell>
        <mxCell id="DsidPfJjmQOoFNHtdB2k-12" value="historialViajes&lt;br&gt;0..*" style="edgeLabel;html=1;align=center;verticalAlign=middle;resizable=0;points=[];rotation=-90;" vertex="1" connectable="0" parent="DsidPfJjmQOoFNHtdB2k-11">
          <mxGeometry x="0.7634" y="3" relative="1" as="geometry">
            <mxPoint x="-6" y="-15" as="offset" />
          </mxGeometry>
        </mxCell>
      </root>
    </mxGraphModel>
  </diagram>
</mxfile>
